<?xml version="1.0" encoding="UTF-8"?>
<svg id="Calque_2" data-name="Calque 2" xmlns="http://www.w3.org/2000/svg" width="539.62mm" height="637.51mm" viewBox="0 0 1529.64 1807.12">
  <g id="Calque_1-2" data-name="Calque 1">
    <path d="M631.07,0S612.81,381.05,4.74,1040.46c0,0-73.59,571.57,359.37,766.66,0,0,280.52-15.4,182.54-275.52,0,0-344.54-150.59-294.52-402.15,0,0,478.2-732.43,378.94-1129.45Z" fill="#f0c74f"/>
    <path d="M898.57,0s18.25,381.05,626.33,1040.46c0,0,73.59,571.57-359.37,766.66,0,0-280.52-15.4-182.54-275.52,0,0,344.54-150.59,294.52-402.15,0,0-478.2-732.43-378.94-1129.45Z" fill="#f0c74f"/>
    <path d="M764.82,524.41s-270.43,493.88,0,1022.21v-1022.21Z" fill="#f0c74f"/>
    <path d="M764.82,1546.62v-1022.21s270.43,493.88,0,1022.21" fill="#f0c74f"/>
  </g>
</svg>